# xmcd
# 
# Track frame offsets:
#     150
#     8415
#     25227
#     41320
#     67685
#     92445
#     100515
#     118987
#     144932
#     167940
#     186647
#     211820
# 
# Disc length: 3040
# 
# Revision: 3
# Processed by: cddbd v1.5.2PL0 Copyright (c) Steve Scherf et al.
# Submitted via: BonkEnc v1.0
# 
DISCID=900bde0c
DTITLE=Char - The Best Of Char
DYEAR=1997
DGENRE=Rock
TTITLE0=Fraurein
TTITLE1=Get High
TTITLE2=Head Song
TTITLE3=Shinin' You, Shinin' Day
TTITLE4=Thrill
TTITLE5=Introduction
TTITLE6=Wasted
TTITLE7=Smoky
TTITLE8=Nice Changes
TTITLE9=Hold Me Tight
TTITLE10=Song In My Heart
TTITLE11=Tokyo Night
EXTD=YEAR: 1997
EXTT0=
EXTT1=
EXTT2=
EXTT3=
EXTT4=
EXTT5=
EXTT6=
EXTT7=
EXTT8=
EXTT9=
EXTT10=
EXTT11=
PLAYORDER=
